<?xml version="1.0" encoding="UTF-8"?>
<svg width="21px" height="21px" viewBox="0 0 21 21" version="1.1" xmlns="http://www.w3.org/2000/svg" xmlns:xlink="http://www.w3.org/1999/xlink">
    <title>noun_swap_1259600</title>
    <defs>
        <filter id="filter-1">
            <feColorMatrix in="SourceGraphic" type="matrix" values="0 0 0 0 1.000000 0 0 0 0 1.000000 0 0 0 0 1.000000 0 0 0 1.000000 0"></feColorMatrix>
        </filter>
    </defs>
    <g id="Page-1" stroke="none" stroke-width="1" fill="none" fill-rule="evenodd">
        <g id="Triplist" transform="translate(-196.000000, -571.000000)">
            <g id="Group-2-Copy-8" transform="translate(20.000000, 447.000000)">
                <g id="noun_swap_1259600" transform="translate(166.000000, 114.000000)" filter="url(#filter-1)">
                    <g transform="translate(10.000000, 10.000000)">
                        <path d="M6.11132813,6.05521875 L16.1827969,6.05521875 L13.62375,8.61426563 C13.2713438,8.96634375 13.2713438,9.53760938 13.62375,9.89034375 C13.7999531,10.0665469 14.030625,10.1548125 14.261625,10.1548125 C14.492625,10.1548125 14.7232969,10.0665469 14.8995,9.89034375 L18.9987656,5.79140625 C19.0404375,5.74973438 19.0778438,5.70379688 19.1109844,5.65490625 C19.1191875,5.64210938 19.1250938,5.62767188 19.1326406,5.61454688 C19.1549531,5.57746875 19.1769375,5.5400625 19.194,5.50003125 C19.201875,5.481 19.2054844,5.46065625 19.212375,5.44129688 C19.2245156,5.40520313 19.2379688,5.3694375 19.2458438,5.331375 C19.2576563,5.27296875 19.2638906,5.21357813 19.2638906,5.152875 C19.2638906,5.09217188 19.2576563,5.03278125 19.2458438,4.974375 C19.2382969,4.9363125 19.2248438,4.90054688 19.212375,4.86445313 C19.2054844,4.84509375 19.2022031,4.82475 19.194,4.80571875 C19.1769375,4.7656875 19.1552813,4.72860938 19.1326406,4.69120313 C19.1250938,4.67807813 19.1191875,4.66364063 19.1109844,4.65084375 C19.0778438,4.60195313 19.0404375,4.55601563 18.9987656,4.51434375 L14.9004844,0.4160625 C14.5480781,0.06365625 13.9771406,0.06365625 13.6244063,0.4160625 C13.272,0.768140625 13.272,1.33940625 13.6244063,1.69214063 L16.1827969,4.25085938 L6.11132813,4.25085938 C2.7943125,4.25085938 0.095484375,6.9496875 0.095484375,10.2667031 C0.095484375,10.765125 0.49940625,11.1690469 0.997828125,11.1690469 C1.49625,11.1690469 1.90017188,10.765125 1.90017188,10.2667031 C1.90017188,7.94423438 3.7891875,6.05521875 6.11132813,6.05521875 Z M20.0021719,9.83128125 C19.50375,9.83128125 19.0998281,10.2352031 19.0998281,10.733625 C19.0998281,13.0557656 17.2108125,14.9447813 14.8886719,14.9447813 L4.81720313,14.9447813 L7.37625,12.3857344 C7.72865625,12.0336563 7.72865625,11.4623906 7.37625,11.1096563 C7.02384375,10.7569219 6.45290625,10.75725 6.10017188,11.1096563 L2.00090625,15.2089219 C1.95923438,15.2505938 1.92182813,15.2965313 1.8886875,15.3454219 C1.8808125,15.3578906 1.87523438,15.3716719 1.86801563,15.3841406 C1.845375,15.4215469 1.82273438,15.4592813 1.806,15.5002969 C1.79845313,15.519 1.79484375,15.5390156 1.78795313,15.5580469 C1.7758125,15.5944688 1.76203125,15.6305625 1.75415625,15.6689531 C1.74234375,15.7273594 1.73610938,15.78675 1.73610938,15.8474531 C1.73610938,15.9081563 1.74234375,15.9675469 1.75415625,16.0259531 C1.76170313,16.0643438 1.77548438,16.1004375 1.78795313,16.1368594 C1.79484375,16.1558906 1.798125,16.1759063 1.806,16.1946094 C1.8230625,16.2352969 1.845375,16.2730313 1.86801563,16.3107656 C1.87523438,16.3232344 1.8808125,16.3370156 1.8886875,16.3494844 C1.92182813,16.398375 1.95923438,16.4443125 2.00090625,16.4859844 L6.09951563,20.5845938 C6.27571875,20.7607969 6.50639063,20.8490625 6.73739063,20.8490625 C6.96839063,20.8490625 7.1990625,20.7607969 7.37526563,20.5845938 C7.72767188,20.2325156 7.72767188,19.66125 7.37526563,19.3085156 L4.816875,16.7497969 L14.8883438,16.7497969 C18.2053594,16.7497969 20.9041877,14.0509688 20.9041877,10.7339531 C20.9045156,10.2352031 20.5005938,9.83128125 20.0021719,9.83128125 Z" id="Shape" fill="#000000" fill-rule="nonzero"></path>
                    </g>
                </g>
            </g>
        </g>
    </g>
</svg>